<?xml version="1.0" standalone="no"?>
<!DOCTYPE svg PUBLIC "-//W3C//DTD SVG 20010904//EN"
 "http://www.w3.org/TR/2001/REC-SVG-20010904/DTD/svg10.dtd">
<svg version="1.0" xmlns="http://www.w3.org/2000/svg"
 width="570.000000pt" height="200.000000pt" viewBox="0 0 570.000000 200.000000"
 preserveAspectRatio="xMidYMid meet">

<g transform="translate(0.000000,200.000000) scale(0.100000,-0.100000)"
fill="#000000" stroke="none">
<path d="M2416 1720 c-9 -22 -16 -60 -16 -85 0 -51 26 -125 45 -125 9 0 7 14
-6 53 -10 28 -18 61 -18 72 0 11 8 44 18 73 22 64 2 75 -23 12z"/>
<path d="M2585 1726 c-8 -19 -17 -51 -20 -73 -7 -49 23 -137 48 -141 18 -4 18
-3 1 30 -24 44 -24 142 -1 186 16 28 16 32 2 32 -9 0 -22 -15 -30 -34z"/>
<path d="M4597 1723 c20 -48 20 -128 0 -175 -12 -29 -13 -38 -3 -38 20 0 46
67 46 120 0 57 -26 130 -46 130 -10 0 -10 -7 3 -37z"/>
<path d="M5455 1748 c-2 -7 -6 -31 -7 -53 -2 -30 -8 -42 -25 -50 -13 -5 -23
-12 -23 -15 0 -3 10 -10 23 -15 17 -8 23 -21 27 -55 5 -42 7 -45 38 -48 18 -2
32 1 32 7 0 6 -9 11 -20 11 -16 0 -20 7 -20 38 0 21 -5 43 -12 50 -9 9 -9 15
0 24 7 7 12 31 12 55 0 36 3 43 20 43 11 0 20 5 20 10 0 15 -60 12 -65 -2z"/>
<path d="M180 1640 c0 -67 4 -110 10 -110 6 0 10 24 10 54 0 36 5 60 16 70 33
34 54 8 54 -66 0 -32 4 -58 10 -58 6 0 10 30 10 69 0 79 -12 97 -60 87 -29 -5
-30 -4 -30 29 0 19 -4 35 -10 35 -6 0 -10 -43 -10 -110z"/>
<path d="M690 1640 c0 -67 4 -110 10 -110 6 0 10 13 10 29 0 46 19 48 54 6 44
-52 67 -43 27 10 -17 22 -31 44 -31 49 0 6 12 23 27 38 37 39 8 37 -40 -3
l-37 -30 0 60 c0 34 -4 61 -10 61 -6 0 -10 -43 -10 -110z"/>
<path d="M1190 1640 c0 -115 14 -150 22 -54 9 109 68 112 68 3 0 -46 3 -59 15
-59 11 0 15 13 15 54 0 30 -5 67 -10 82 -10 24 -14 26 -50 21 -40 -5 -40 -5
-40 29 0 19 -4 34 -10 34 -6 0 -10 -43 -10 -110z"/>
<path d="M3435 1740 c-7 -12 2 -30 16 -30 5 0 9 9 9 20 0 21 -15 27 -25 10z"/>
<path d="M3770 1730 c0 -11 7 -20 15 -20 8 0 15 9 15 20 0 11 -7 20 -15 20 -8
0 -15 -9 -15 -20z"/>
<path d="M1050 1710 c0 -13 -7 -20 -20 -20 -11 0 -20 -4 -20 -10 0 -5 9 -10
20 -10 18 0 20 -7 20 -60 0 -63 13 -80 59 -80 29 0 26 17 -4 24 -23 6 -25 11
-25 61 0 52 1 55 25 55 14 0 25 5 25 10 0 6 -11 10 -25 10 -18 0 -25 5 -25 20
0 11 -7 20 -15 20 -8 0 -15 -9 -15 -20z"/>
<path d="M3240 1710 c0 -13 -7 -20 -20 -20 -11 0 -20 -4 -20 -10 0 -5 9 -10
20 -10 18 0 20 -7 20 -54 0 -63 16 -86 61 -86 38 0 37 16 -1 24 -29 5 -30 7
-30 61 0 54 0 55 30 55 17 0 30 5 30 10 0 6 -13 10 -30 10 -23 0 -30 4 -30 20
0 11 -7 20 -15 20 -8 0 -15 -9 -15 -20z"/>
<path d="M4420 1710 c0 -13 -7 -20 -20 -20 -11 0 -20 -4 -20 -10 0 -5 9 -10
20 -10 18 0 20 -7 20 -54 0 -63 16 -86 61 -86 38 0 37 16 -1 24 -29 5 -30 7
-30 61 0 54 0 55 30 55 17 0 30 5 30 10 0 6 -13 10 -30 10 -23 0 -30 4 -30 20
0 11 -7 20 -15 20 -8 0 -15 -9 -15 -20z"/>
<path d="M357 1683 c-15 -15 -5 -25 18 -19 27 7 65 -8 65 -24 0 -6 -14 -10
-31 -10 -49 0 -69 -16 -69 -55 0 -39 12 -45 78 -43 l42 2 0 68 c0 56 -3 69
-19 78 -22 11 -74 14 -84 3z m83 -81 c0 -15 -31 -52 -44 -52 -8 0 -19 7 -26
15 -10 12 -10 18 0 30 13 15 70 21 70 7z"/>
<path d="M539 1672 c-30 -25 -33 -90 -5 -121 23 -26 96 -30 96 -6 0 11 -7 13
-29 9 -24 -5 -32 -1 -47 21 -31 48 12 115 57 87 18 -12 20 -11 17 5 -5 26 -58
29 -89 5z"/>
<path d="M863 1683 c-26 -10 -13 -25 17 -20 36 8 60 0 60 -19 0 -9 -12 -14
-33 -14 -40 0 -68 -27 -62 -58 7 -38 15 -42 71 -40 l54 2 0 62 c0 44 -5 67
-16 78 -15 15 -65 20 -91 9z m77 -92 c0 -26 -25 -44 -50 -36 -37 12 -16 55 27
55 16 0 23 -6 23 -19z"/>
<path d="M1366 1668 c-9 -12 -16 -38 -16 -58 0 -51 24 -80 65 -80 41 0 65 29
65 80 0 51 -24 80 -65 80 -24 0 -39 -7 -49 -22z m73 -12 c7 -8 11 -31 9 -52
-6 -73 -68 -68 -68 5 0 54 32 79 59 47z"/>
<path d="M1525 1681 c-3 -2 -5 -37 -5 -78 0 -58 3 -73 15 -73 11 0 15 13 15
54 0 52 16 86 41 86 15 0 29 -47 29 -96 0 -24 5 -44 10 -44 15 0 13 135 -3
148 -12 11 -93 13 -102 3z"/>
<path d="M1850 1610 c0 -47 4 -80 10 -80 6 0 10 26 10 58 0 31 4 63 9 71 17
27 31 -1 31 -65 0 -36 4 -64 10 -64 6 0 10 26 10 58 0 65 13 97 30 72 5 -8 10
-41 10 -72 0 -34 4 -58 10 -58 7 0 10 29 8 78 l-3 77 -67 2 -68 3 0 -80z"/>
<path d="M2043 1683 c-26 -10 -13 -25 17 -20 36 8 60 0 60 -19 0 -9 -12 -14
-33 -14 -40 0 -68 -27 -62 -58 7 -38 15 -42 71 -40 l54 2 0 62 c0 44 -5 67
-16 78 -15 15 -65 20 -91 9z m77 -92 c0 -26 -25 -44 -50 -36 -37 12 -16 55 27
55 16 0 23 -6 23 -19z"/>
<path d="M2200 1578 c0 -65 4 -108 10 -108 6 0 10 15 10 34 0 34 1 35 33 29
47 -7 67 15 67 77 0 63 -17 80 -75 78 l-45 -2 0 -108z m89 61 c27 -48 -12
-110 -47 -75 -19 19 -20 70 -2 91 17 20 31 15 49 -16z"/>
<path d="M2704 1675 c-11 -26 1 -198 14 -203 8 -2 12 8 12 30 0 33 1 34 34 30
41 -5 66 24 66 78 0 57 -23 80 -77 78 -24 -1 -47 -7 -49 -13z m85 -19 c18 -21
10 -87 -12 -100 -38 -23 -65 64 -31 98 19 20 28 20 43 2z"/>
<path d="M2887 1683 c-15 -15 -5 -25 18 -19 27 7 65 -8 65 -24 0 -6 -14 -10
-31 -10 -49 0 -69 -16 -69 -55 0 -39 12 -45 78 -43 l42 2 0 68 c0 56 -3 69
-19 78 -22 11 -74 14 -84 3z m83 -81 c0 -15 -31 -52 -44 -52 -8 0 -19 7 -26
15 -10 12 -10 18 0 30 13 15 70 21 70 7z"/>
<path d="M3067 1683 c-4 -3 -7 -39 -7 -80 0 -58 3 -73 15 -73 11 0 15 12 15
50 0 58 27 96 61 85 13 -4 19 -2 19 9 0 19 -50 22 -68 4 -9 -9 -12 -9 -12 0 0
13 -13 16 -23 5z"/>
<path d="M3400 1680 c0 -5 7 -10 15 -10 12 0 15 -13 15 -60 0 -58 -1 -60 -26
-60 -14 0 -23 -4 -19 -10 8 -13 125 -13 125 -1 0 5 -10 11 -22 13 -21 3 -23 9
-26 71 -3 67 -3 67 -32 67 -17 0 -30 -4 -30 -10z"/>
<path d="M3571 1671 c-14 -14 -21 -34 -21 -61 0 -54 28 -82 78 -78 27 2 38 8
41 23 3 17 1 18 -13 6 -23 -20 -64 -6 -72 24 -15 59 21 99 67 75 18 -10 20 -9
17 7 -5 28 -71 30 -97 4z"/>
<path d="M3736 1681 c-3 -5 3 -11 14 -14 17 -4 20 -14 20 -61 0 -53 -1 -56
-25 -56 -14 0 -25 -4 -25 -10 0 -6 28 -10 65 -10 37 0 65 4 65 10 0 6 -11 10
-25 10 -24 0 -25 2 -25 70 l0 70 -29 0 c-17 0 -32 -4 -35 -9z"/>
<path d="M3884 1675 c-11 -26 1 -198 14 -203 8 -2 12 8 12 30 0 33 1 34 34 30
41 -5 66 24 66 78 0 57 -23 80 -77 78 -24 -1 -47 -7 -49 -13z m85 -19 c18 -21
10 -87 -12 -100 -38 -23 -65 64 -31 98 19 20 28 20 43 2z"/>
<path d="M4067 1683 c-15 -15 -5 -25 18 -19 27 7 65 -8 65 -24 0 -6 -14 -10
-31 -10 -49 0 -69 -16 -69 -55 0 -39 12 -45 78 -43 l42 2 0 68 c0 56 -3 69
-19 78 -22 11 -74 14 -84 3z m83 -81 c0 -15 -31 -52 -44 -52 -8 0 -19 7 -26
15 -10 12 -10 18 0 30 13 15 70 21 70 7z"/>
<path d="M4220 1608 c0 -63 3 -78 15 -78 12 0 15 13 15 59 0 62 14 86 44 75
12 -5 16 -20 16 -70 0 -50 3 -64 15 -64 12 0 15 13 15 61 0 86 -9 98 -70 97
l-50 -1 0 -79z"/>
<path d="M5050 1677 c0 -9 20 -22 50 -33 28 -10 50 -21 50 -24 0 -3 -22 -13
-50 -23 -29 -10 -50 -24 -50 -32 0 -12 10 -11 53 6 28 12 60 24 70 26 35 11
18 40 -35 61 -29 11 -61 23 -70 27 -13 5 -18 2 -18 -8z"/>
<path d="M4880 1655 c0 -12 15 -15 75 -15 60 0 75 3 75 15 0 12 -15 15 -75 15
-60 0 -75 -3 -75 -15z"/>
<path d="M4880 1590 c0 -6 32 -10 75 -10 43 0 75 4 75 10 0 6 -32 10 -75 10
-43 0 -75 -4 -75 -10z"/>
<path d="M1720 1560 c0 -25 4 -30 25 -30 21 0 25 5 25 30 0 25 -4 30 -25 30
-21 0 -25 -5 -25 -30z"/>
<path d="M3260 1305 l0 -125 30 0 c17 0 30 5 30 10 0 6 -7 10 -15 10 -12 0
-15 18 -15 105 0 87 3 105 15 105 8 0 15 5 15 10 0 6 -13 10 -30 10 l-30 0 0
-125z"/>
<path d="M3390 1420 c0 -5 9 -10 20 -10 19 0 20 -7 20 -105 0 -98 -1 -105 -20
-105 -11 0 -20 -4 -20 -10 0 -5 14 -10 30 -10 l30 0 0 125 0 125 -30 0 c-16 0
-30 -4 -30 -10z"/>
<path d="M1700 1410 c0 -5 9 -10 20 -10 18 0 20 -7 20 -84 0 -64 4 -88 16
-100 20 -21 64 -21 64 0 0 8 -4 13 -9 10 -5 -4 -16 -3 -25 0 -13 5 -16 23 -16
100 l0 94 -35 0 c-19 0 -35 -4 -35 -10z"/>
<path d="M2255 1410 c-7 -12 2 -30 16 -30 5 0 9 9 9 20 0 21 -15 27 -25 10z"/>
<path d="M2060 1380 c0 -13 -7 -20 -20 -20 -11 0 -20 -4 -20 -10 0 -5 9 -10
20 -10 18 0 20 -7 20 -54 0 -63 16 -86 61 -86 38 0 37 16 -1 24 -29 5 -30 7
-30 61 0 54 0 55 30 55 17 0 30 5 30 10 0 6 -13 10 -30 10 -23 0 -30 4 -30 20
0 11 -7 20 -15 20 -8 0 -15 -9 -15 -20z"/>
<path d="M672 1348 c3 -7 15 -43 27 -80 17 -51 27 -68 41 -68 14 0 24 17 41
68 12 37 24 73 27 80 2 6 -2 12 -10 12 -8 0 -22 -23 -32 -52 -11 -29 -22 -57
-26 -61 -4 -4 -15 20 -25 53 -11 37 -24 60 -33 60 -8 0 -12 -6 -10 -12z"/>
<path d="M863 1353 c-26 -10 -13 -25 17 -20 36 8 60 0 60 -19 0 -9 -12 -14
-33 -14 -40 0 -68 -27 -62 -58 7 -38 15 -42 71 -40 l54 2 0 62 c0 44 -5 67
-16 78 -15 15 -65 20 -91 9z m77 -92 c0 -26 -25 -44 -50 -36 -37 12 -16 55 27
55 16 0 23 -6 23 -19z"/>
<path d="M1040 1280 c0 -64 3 -80 15 -80 11 0 15 13 15 54 0 44 4 58 21 69 11
8 29 13 40 10 13 -4 19 0 19 11 0 19 -50 22 -68 4 -9 -9 -12 -9 -12 0 0 7 -7
12 -15 12 -12 0 -15 -16 -15 -80z"/>
<path d="M1372 1348 c-7 -7 -12 -23 -12 -36 0 -18 9 -27 40 -39 54 -21 51 -49
-4 -46 -50 3 -43 -21 8 -25 43 -4 66 11 66 43 0 26 -14 40 -53 49 -41 10 -32
42 11 40 21 -1 32 3 32 12 0 18 -71 19 -88 2z"/>
<path d="M1537 1342 c-24 -26 -23 -104 1 -125 27 -25 78 -22 96 5 23 32 20 94
-4 118 -25 25 -72 26 -93 2z m67 -18 c34 -34 7 -121 -31 -98 -30 18 -39 59
-19 88 19 30 29 32 50 10z"/>
<path d="M1860 1299 c0 -86 9 -99 70 -97 l50 2 0 79 c0 58 -3 78 -12 75 -8 -3
-14 -27 -16 -60 -3 -59 -18 -83 -46 -72 -12 5 -16 20 -16 70 0 50 -3 64 -15
64 -12 0 -15 -13 -15 -61z"/>
<path d="M2220 1350 c0 -5 7 -10 15 -10 12 0 15 -13 15 -60 0 -58 -1 -60 -26
-60 -14 0 -23 -4 -19 -10 8 -13 125 -13 125 -1 0 5 -10 11 -22 13 -21 3 -23 9
-26 71 -3 67 -3 67 -32 67 -17 0 -30 -4 -30 -10z"/>
<path d="M2380 1340 c-24 -24 -27 -86 -4 -118 19 -28 74 -30 97 -4 24 26 23
104 -1 125 -25 23 -68 21 -92 -3z m69 -14 c18 -21 10 -87 -12 -100 -38 -23
-65 64 -31 98 19 20 28 20 43 2z"/>
<path d="M2540 1278 c0 -45 4 -78 10 -78 6 0 10 24 10 54 0 36 5 60 16 70 33
34 54 8 54 -66 0 -32 4 -58 10 -58 15 0 13 135 -3 148 -7 6 -32 10 -55 9 l-42
-1 0 -78z"/>
<path d="M3580 1335 c0 -18 5 -25 20 -25 15 0 20 7 20 25 0 18 -5 25 -20 25
-15 0 -20 -7 -20 -25z"/>
<path d="M2860 1325 c0 -12 14 -15 70 -15 56 0 70 3 70 15 0 12 -14 15 -70 15
-56 0 -70 -3 -70 -15z"/>
<path d="M2860 1260 c0 -6 30 -10 70 -10 40 0 70 4 70 10 0 6 -30 10 -70 10
-40 0 -70 -4 -70 -10z"/>
<path d="M3580 1228 c0 -13 -3 -33 -6 -45 -9 -35 22 -29 41 7 22 43 19 60 -10
60 -19 0 -25 -5 -25 -22z"/>
<path d="M2080 975 l0 -125 30 0 c17 0 30 5 30 10 0 6 -7 10 -15 10 -12 0 -15
18 -15 105 0 87 3 105 15 105 8 0 15 5 15 10 0 6 -13 10 -30 10 l-30 0 0 -125z"/>
<path d="M4070 1090 c0 -5 7 -10 15 -10 12 0 15 -18 15 -105 0 -87 -3 -105
-15 -105 -8 0 -15 -4 -15 -10 0 -5 14 -10 30 -10 l30 0 0 125 0 125 -30 0
c-16 0 -30 -4 -30 -10z"/>
<path d="M1025 1081 c-3 -5 5 -11 17 -13 22 -3 23 -8 26 -88 2 -46 8 -90 14
-97 12 -15 68 -18 68 -3 0 6 -8 10 -18 10 -34 0 -42 21 -42 112 l0 88 -29 0
c-17 0 -32 -4 -36 -9z"/>
<path d="M1580 1071 c0 -12 6 -21 16 -21 9 0 14 7 12 17 -5 25 -28 28 -28 4z"/>
<path d="M2930 1071 c0 -12 6 -21 16 -21 9 0 14 7 12 17 -5 25 -28 28 -28 4z"/>
<path d="M3270 1070 c0 -11 5 -20 10 -20 6 0 10 9 10 20 0 11 -4 20 -10 20 -5
0 -10 -9 -10 -20z"/>
<path d="M4747 1073 c-4 -3 -7 -12 -7 -19 0 -11 5 -11 25 -2 21 9 29 9 42 -5
16 -16 15 -19 -10 -45 -29 -31 -36 -72 -12 -72 8 0 15 8 15 17 0 9 10 27 21
39 24 26 28 72 8 85 -17 10 -73 12 -82 2z"/>
<path d="M1390 1050 c0 -13 -7 -20 -20 -20 -11 0 -20 -4 -20 -9 0 -5 9 -11 20
-14 17 -4 20 -14 20 -59 0 -30 5 -59 12 -66 14 -14 68 -16 68 -2 0 6 -9 10
-20 10 -26 0 -42 32 -38 78 3 32 7 37 31 40 37 4 35 22 -3 22 -23 0 -30 4 -30
20 0 11 -4 20 -10 20 -5 0 -10 -9 -10 -20z"/>
<path d="M2740 1050 c0 -13 -7 -20 -19 -20 -29 0 -35 -18 -9 -22 20 -3 23 -10
26 -58 2 -30 8 -60 14 -67 12 -15 68 -18 68 -3 0 6 -8 10 -19 10 -29 0 -43 25
-39 72 3 39 6 43 31 46 37 4 35 22 -3 22 -23 0 -30 4 -30 20 0 11 -4 20 -10
20 -5 0 -10 -9 -10 -20z"/>
<path d="M3920 1050 c0 -13 -7 -20 -19 -20 -29 0 -35 -18 -9 -22 20 -3 23 -10
26 -58 2 -30 8 -60 14 -67 12 -15 68 -18 68 -3 0 6 -8 10 -19 10 -29 0 -43 25
-39 72 3 39 6 43 31 46 37 4 35 22 -3 22 -23 0 -30 4 -30 20 0 11 -4 20 -10
20 -5 0 -10 -9 -10 -20z"/>
<path d="M704 1023 c-15 -11 -24 -41 -18 -58 3 -8 24 -20 45 -25 41 -11 52
-35 20 -45 -11 -3 -32 -3 -46 1 -21 5 -27 4 -23 -7 10 -31 103 -22 113 11 8
25 -11 60 -33 60 -10 0 -27 7 -38 15 -16 13 -17 16 -4 25 8 5 28 7 44 4 21 -5
27 -3 24 7 -5 15 -67 24 -84 12z"/>
<path d="M866 1015 c-39 -39 -27 -129 19 -141 45 -11 73 3 84 41 10 39 0 93
-21 107 -21 13 -65 9 -82 -7z m68 -27 c9 -12 16 -32 16 -45 0 -21 -24 -53 -40
-53 -35 0 -53 76 -24 104 21 21 30 20 48 -6z"/>
<path d="M1190 961 c0 -81 8 -91 73 -89 l47 1 0 78 c0 62 -3 79 -15 79 -10 0
-15 -16 -17 -61 -2 -45 -8 -65 -20 -73 -27 -17 -41 6 -46 74 -6 82 -22 76 -22
-9z"/>
<path d="M1540 1022 c0 -5 9 -12 20 -15 17 -4 20 -14 20 -61 0 -53 -1 -56 -25
-56 -14 0 -25 -4 -25 -10 0 -6 28 -10 65 -10 37 0 65 4 65 10 0 6 -11 10 -25
10 -23 0 -24 3 -27 68 l-3 67 -32 3 c-18 2 -33 -1 -33 -6z"/>
<path d="M1707 1012 c-24 -26 -23 -104 1 -125 27 -25 78 -22 96 5 23 32 20 94
-4 118 -25 25 -72 26 -93 2z m67 -18 c34 -34 7 -121 -31 -98 -30 18 -39 59
-19 88 19 30 29 32 50 10z"/>
<path d="M1860 948 c0 -63 3 -78 15 -78 12 0 15 13 15 59 0 62 14 86 44 75 12
-5 16 -20 16 -70 0 -50 3 -64 15 -64 12 0 15 13 15 61 0 86 -9 98 -70 97 l-50
-1 0 -79z"/>
<path d="M2200 918 c0 -65 4 -108 10 -108 6 0 10 15 10 34 0 34 1 35 33 29 47
-7 67 15 67 77 0 63 -17 80 -75 78 l-45 -2 0 -108z m89 61 c27 -48 -12 -110
-47 -75 -19 19 -20 70 -2 91 17 20 31 15 49 -16z"/>
<path d="M2377 1023 c-4 -3 -7 -12 -7 -19 0 -9 7 -10 29 -1 23 8 33 8 45 -2
25 -21 19 -31 -18 -31 -40 0 -66 -22 -66 -54 0 -34 20 -46 78 -45 l52 2 0 62
c0 47 -4 66 -18 78 -18 17 -82 23 -95 10z m83 -87 c0 -21 -30 -48 -49 -44 -20
4 -27 38 -9 49 21 14 58 10 58 -5z"/>
<path d="M2560 948 c0 -63 3 -78 15 -78 11 0 15 13 15 54 0 65 18 89 57 80 19
-5 24 -3 21 7 -3 9 -21 14 -56 14 l-52 1 0 -78z"/>
<path d="M2890 1022 c0 -5 9 -12 20 -15 17 -4 20 -14 20 -61 0 -53 -1 -56 -25
-56 -14 0 -25 -4 -25 -10 0 -6 28 -10 65 -10 37 0 65 4 65 10 0 6 -11 10 -25
10 -23 0 -24 3 -27 68 l-3 67 -32 3 c-18 2 -33 -1 -33 -6z"/>
<path d="M3061 1004 c-11 -15 -21 -39 -21 -54 0 -15 10 -39 21 -54 17 -22 28
-27 58 -24 27 2 37 8 39 23 3 16 1 18 -9 8 -18 -18 -43 -16 -62 5 -23 25 -21
65 3 87 17 15 24 16 46 6 22 -10 25 -9 22 6 -2 13 -14 19 -39 21 -30 3 -41 -2
-58 -24z"/>
<path d="M3230 1016 c0 -8 8 -13 18 -12 14 1 17 -8 17 -54 0 -49 -2 -55 -22
-58 -47 -7 -21 -22 37 -22 58 0 84 15 38 22 -21 3 -23 9 -26 71 -3 67 -3 67
-32 67 -19 0 -30 -5 -30 -14z"/>
<path d="M3380 918 c0 -65 4 -108 10 -108 6 0 10 15 10 34 0 34 1 35 33 29 47
-7 67 15 67 77 0 63 -17 80 -75 78 l-45 -2 0 -108z m89 61 c27 -48 -12 -110
-47 -75 -19 19 -20 70 -2 91 17 20 31 15 49 -16z"/>
<path d="M3557 1023 c-4 -3 -7 -12 -7 -19 0 -9 7 -10 29 -1 23 8 33 8 45 -2
25 -21 19 -31 -18 -31 -40 0 -66 -22 -66 -54 0 -34 20 -46 78 -45 l52 2 0 62
c0 47 -4 66 -18 78 -18 17 -82 23 -95 10z m83 -87 c0 -21 -30 -48 -49 -44 -20
4 -27 38 -9 49 21 14 58 10 58 -5z"/>
<path d="M3720 948 c0 -45 4 -78 10 -78 6 0 10 24 10 54 0 36 5 60 16 70 33
34 54 8 54 -66 0 -32 4 -58 10 -58 15 0 13 135 -3 148 -7 6 -32 10 -55 9 l-42
-1 0 -78z"/>
<path d="M4930 1005 c0 -18 5 -25 20 -25 15 0 20 7 20 25 0 18 -5 25 -20 25
-15 0 -20 -7 -20 -25z"/>
<path d="M4380 995 c0 -12 14 -15 70 -15 56 0 70 3 70 15 0 12 -14 15 -70 15
-56 0 -70 -3 -70 -15z"/>
<path d="M4380 930 c0 -6 30 -10 70 -10 40 0 70 4 70 10 0 6 -30 10 -70 10
-40 0 -70 -4 -70 -10z"/>
<path d="M4930 906 c0 -7 -3 -28 -6 -45 -8 -39 17 -43 34 -6 18 40 15 65 -8
65 -11 0 -20 -6 -20 -14z"/>
<path d="M4770 890 c0 -11 7 -20 15 -20 8 0 15 9 15 20 0 11 -7 20 -15 20 -8
0 -15 -9 -15 -20z"/>
<path d="M2205 751 c-3 -5 5 -11 17 -13 22 -3 23 -8 26 -88 2 -46 8 -90 14
-97 12 -15 68 -18 68 -3 0 6 -8 10 -18 10 -34 0 -42 21 -42 112 l0 88 -29 0
c-17 0 -32 -4 -36 -9z"/>
<path d="M2760 741 c0 -12 6 -21 16 -21 9 0 14 7 12 17 -5 25 -28 28 -28 4z"/>
<path d="M1050 720 c0 -13 -7 -20 -20 -20 -11 0 -20 -4 -20 -10 0 -5 9 -10 20
-10 18 0 20 -7 20 -60 0 -63 13 -80 59 -80 29 0 26 17 -4 24 -23 6 -25 11 -25
61 0 52 1 55 25 55 14 0 25 5 25 10 0 6 -11 10 -25 10 -18 0 -25 5 -25 20 0
11 -7 20 -15 20 -8 0 -15 -9 -15 -20z"/>
<path d="M2570 720 c0 -13 -7 -20 -20 -20 -11 0 -20 -4 -20 -9 0 -5 9 -11 20
-14 17 -4 20 -14 20 -59 0 -30 5 -59 12 -66 14 -14 68 -16 68 -2 0 6 -9 10
-20 10 -26 0 -42 32 -38 78 3 32 7 37 31 40 37 4 35 22 -3 22 -23 0 -30 4 -30
20 0 11 -4 20 -10 20 -5 0 -10 -9 -10 -20z"/>
<path d="M707 693 c-4 -3 -7 -39 -7 -80 0 -58 3 -73 15 -73 11 0 15 12 15 50
0 58 27 96 61 85 13 -4 19 -2 19 9 0 19 -50 22 -68 4 -9 -9 -12 -9 -12 0 0 13
-13 16 -23 5z"/>
<path d="M861 674 c-27 -34 -27 -74 0 -108 18 -23 28 -27 62 -24 22 2 42 9 45
16 3 10 -4 12 -30 7 -26 -5 -39 -2 -51 10 -32 32 -21 45 38 45 48 0 55 2 55
20 0 57 -83 80 -119 34z m77 -6 c21 -21 13 -28 -30 -28 -40 0 -41 0 -23 20 21
23 36 25 53 8z"/>
<path d="M1190 631 c0 -81 8 -91 73 -89 l47 1 0 78 c0 62 -3 79 -15 79 -10 0
-15 -16 -17 -61 -2 -45 -8 -65 -20 -73 -27 -17 -41 6 -46 74 -6 82 -22 76 -22
-9z"/>
<path d="M1380 618 c0 -63 3 -78 15 -78 11 0 15 13 15 54 0 65 18 89 57 80 19
-5 24 -3 21 7 -3 9 -21 14 -56 14 l-52 1 0 -78z"/>
<path d="M1525 691 c-3 -2 -5 -37 -5 -78 0 -58 3 -73 15 -73 11 0 15 13 15 54
0 52 16 86 41 86 15 0 29 -47 29 -96 0 -24 5 -44 10 -44 15 0 13 135 -3 148
-12 11 -93 13 -102 3z"/>
<path d="M1884 693 c-15 -11 -24 -41 -18 -58 3 -8 24 -20 45 -25 41 -11 52
-35 20 -45 -11 -3 -32 -3 -46 1 -21 5 -27 4 -23 -7 10 -31 103 -22 113 11 8
25 -11 60 -33 60 -10 0 -27 7 -38 15 -16 13 -17 16 -4 25 8 5 28 7 44 4 21 -5
27 -3 24 7 -5 15 -67 24 -84 12z"/>
<path d="M2046 685 c-39 -39 -27 -129 19 -141 45 -11 73 3 84 41 10 39 0 93
-21 107 -21 13 -65 9 -82 -7z m68 -27 c9 -12 16 -32 16 -45 0 -21 -24 -53 -40
-53 -18 0 -40 33 -40 60 0 27 22 60 40 60 5 0 16 -10 24 -22z"/>
<path d="M2370 631 c0 -81 8 -91 73 -89 l47 1 0 78 c0 62 -3 79 -15 79 -10 0
-15 -16 -17 -61 -2 -45 -8 -65 -20 -73 -27 -17 -41 6 -46 74 -6 82 -22 76 -22
-9z"/>
<path d="M2720 692 c0 -5 9 -12 20 -15 17 -4 20 -14 20 -61 0 -53 -1 -56 -25
-56 -14 0 -25 -4 -25 -10 0 -6 28 -10 65 -10 37 0 65 4 65 10 0 6 -11 10 -25
10 -23 0 -24 3 -27 68 l-3 67 -32 3 c-18 2 -33 -1 -33 -6z"/>
<path d="M2887 682 c-24 -26 -23 -104 1 -125 27 -25 78 -22 96 5 23 32 20 94
-4 118 -25 25 -72 26 -93 2z m67 -18 c34 -34 7 -121 -31 -98 -30 18 -39 59
-19 88 19 30 29 32 50 10z"/>
<path d="M3040 618 c0 -63 3 -78 15 -78 12 0 15 13 15 59 0 62 14 86 44 75 12
-5 16 -20 16 -70 0 -50 3 -64 15 -64 12 0 15 13 15 61 0 86 -9 98 -70 97 l-50
-1 0 -79z"/>
<path d="M3247 693 c-4 -3 -7 -15 -7 -25 0 -13 7 -18 25 -18 20 0 25 5 25 25
0 18 -5 25 -18 25 -10 0 -22 -3 -25 -7z"/>
<path d="M3240 561 c0 -16 -3 -36 -6 -45 -11 -29 25 -17 41 14 22 43 19 60
-10 60 -21 0 -25 -5 -25 -29z"/>
<path d="M180 431 c0 -5 9 -11 20 -14 16 -4 20 -14 20 -44 0 -21 5 -44 12 -51
9 -9 9 -15 0 -24 -7 -7 -12 -27 -12 -46 0 -25 -5 -35 -20 -39 -30 -8 -24 -23
10 -23 31 0 36 9 42 75 2 22 9 31 26 33 12 2 22 7 22 12 0 5 -10 10 -22 12
-19 2 -24 10 -26 48 -2 24 -8 50 -14 57 -12 15 -58 18 -58 4z"/>
<path d="M375 423 c30 -78 30 -147 0 -215 -4 -11 -3 -18 4 -18 7 0 21 21 33
47 23 52 21 120 -7 172 -16 33 -42 44 -30 14z"/>
</g>
</svg>
